<svg width="419" height="458" viewBox="0 0 419 458" fill="none" xmlns="http://www.w3.org/2000/svg">
<path d="M418.141 94.0452V404.752L334.766 449.812V158.909C334.766 145.893 327.909 133.839 316.72 127.188C292.122 112.567 260.963 130.293 260.963 158.909V207.138L238.888 216.747C204.523 231.707 166.092 206.522 166.092 169.041V104.378C166.092 70.0481 185.335 38.6154 215.91 23.0039C243.941 8.69149 277.364 9.81338 304.372 25.9732L418.141 94.0452Z" fill="white"/>
<path fill-rule="evenodd" clip-rule="evenodd" d="M0 247.289V101.591C0 88.983 7.20993 77.4857 18.5593 71.9951C54.9464 54.3919 97.2172 80.8998 97.2172 121.321V283.129L46.2747 264.349L97.2172 283.129V318.151C97.2172 337.174 107.814 354.613 124.699 363.376C141.657 372.177 161.911 359.87 161.911 340.763L161.911 309.224L161.911 309.203L161.911 283.04C161.911 274.616 166.49 266.857 173.865 262.785C212.32 241.553 259.477 269.247 259.667 313.174L259.804 345.113C259.804 365.117 258.236 405.926 236.614 426.122C229.934 432.743 220.019 438.904 208.462 444.209C145.429 473.143 64.6888 453.498 23.9089 397.397C10.3119 378.692 0.428783 355.519 0.0135951 327.557L0 327.547V325.723V247.289V247.289Z" fill="white"/>
</svg>
